<?xml version="1.0" standalone="no"?>
<!DOCTYPE svg PUBLIC "-//W3C//DTD SVG 20010904//EN"
 "http://www.w3.org/TR/2001/REC-SVG-20010904/DTD/svg10.dtd">
<svg version="1.0" xmlns="http://www.w3.org/2000/svg"
 width="260.000000pt" height="260.000000pt" viewBox="0 0 260.000000 260.000000"
 preserveAspectRatio="xMidYMid meet">
<metadata>
Created by potrace 1.11, written by Peter Selinger 2001-2013
</metadata>
<g transform="translate(0.000000,260.000000) scale(0.100000,-0.100000)"
fill="#000000" stroke="none">
<path d="M410 1300 l0 -1250 890 0 890 0 0 320 0 320 -490 0 -491 0 3 152 3
152 398 0 397 0 0 287 c0 221 -3 288 -12 291 -7 2 -187 3 -400 3 l-388 -1 0
168 0 168 429 0 429 0 11 63 c6 34 13 78 16 97 3 19 7 46 10 60 2 14 7 42 10
63 3 20 7 54 10 75 3 20 8 48 10 62 3 14 7 43 11 65 3 22 8 54 10 70 3 17 7
42 9 58 l4 27 -879 0 -880 0 0 -1250z"/>
</g>
</svg>
