<?xml version="1.0" encoding="UTF-8" standalone="no"?>
<!-- Created with Inkscape (http://www.inkscape.org/) -->

<svg
   xmlns:dc="http://purl.org/dc/elements/1.1/"
   xmlns:cc="http://creativecommons.org/ns#"
   xmlns:rdf="http://www.w3.org/1999/02/22-rdf-syntax-ns#"
   xmlns:svg="http://www.w3.org/2000/svg"
   xmlns="http://www.w3.org/2000/svg"
   xmlns:sodipodi="http://sodipodi.sourceforge.net/DTD/sodipodi-0.dtd"
   xmlns:inkscape="http://www.inkscape.org/namespaces/inkscape"
   width="142.84113mm"
   height="38.364582mm"
   viewBox="0 0 142.84113 38.364582"
   version="1.1"
   id="svg3717"
   inkscape:version="0.92.2 5c3e80d, 2017-08-06"
   sodipodi:docname="logo.svg">
  <defs
     id="defs3711" />
  <sodipodi:namedview
     id="base"
     pagecolor="#ffffff"
     bordercolor="#666666"
     borderopacity="1.0"
     inkscape:pageopacity="0.0"
     inkscape:pageshadow="2"
     inkscape:zoom="1"
     inkscape:cx="341.60507"
     inkscape:cy="-53.557976"
     inkscape:document-units="mm"
     inkscape:current-layer="layer1"
     showgrid="false"
     inkscape:window-width="2560"
     inkscape:window-height="1315"
     inkscape:window-x="0"
     inkscape:window-y="1"
     inkscape:window-maximized="1" />
  <metadata
     id="metadata3714">
    <rdf:RDF>
      <cc:Work
         rdf:about="">
        <dc:format>image/svg+xml</dc:format>
        <dc:type
           rdf:resource="http://purl.org/dc/dcmitype/StillImage" />
        <dc:title></dc:title>
      </cc:Work>
    </rdf:RDF>
  </metadata>
  <g
     inkscape:label="Layer 1"
     inkscape:groupmode="layer"
     id="layer1"
     transform="translate(-36.07485,-57.369111)">
    <flowRoot
       xml:space="preserve"
       id="flowRoot3719"
       style="font-style:normal;font-weight:normal;font-size:40px;line-height:1.25;font-family:sans-serif;letter-spacing:0px;word-spacing:0px;fill:#000000;fill-opacity:1;stroke:none"
       transform="scale(0.26458333)"><flowRegion
         id="flowRegion3721"><rect
           id="rect3723"
           width="345.71429"
           height="202.85715"
           x="225.71428"
           y="359.66254" /></flowRegion><flowPara
         id="flowPara3725" /></flowRoot>    <g
       aria-label="EDAN"
       style="font-style:normal;font-weight:normal;font-size:50.79999924px;line-height:1.25;font-family:sans-serif;letter-spacing:0px;word-spacing:0px;fill:#ffc401;fill-opacity:1;stroke:#ff3f01;stroke-width:0.26458332;stroke-opacity:0"
       id="text3729">
      <path
         sodipodi:type="inkscape:offset"
         inkscape:radius="0"
         inkscape:original="M 36.207031 57.501953 L 36.207031 95.601562 L 63.333984 95.601562 L 63.333984 85.847656 L 48.398438 85.847656 L 48.398438 81.224609 L 60.591797 81.224609 L 60.591797 72.386719 L 48.398438 72.386719 L 48.398438 67.255859 L 61.505859 67.255859 L 63.029297 57.501953 L 36.207031 57.501953 z M 68.552734 57.501953 L 68.552734 95.601562 L 85.621094 95.601562 C 89.041627 95.601562 91.904098 95.246356 94.207031 94.535156 C 96.509965 93.823956 98.355607 92.705641 99.744141 91.181641 C 101.13267 89.657641 102.11372 87.693596 102.68945 85.289062 C 103.29905 82.850662 103.60352 79.920533 103.60352 76.5 C 103.60352 73.079467 103.29905 70.168205 102.68945 67.763672 C 102.11372 65.359139 101.13267 63.395094 99.744141 61.871094 C 98.355607 60.347094 96.509965 59.245693 94.207031 58.568359 C 91.904098 57.857159 89.041627 57.501953 85.621094 57.501953 L 68.552734 57.501953 z M 113.93945 57.501953 L 104.08398 95.601562 L 116.93555 95.601562 L 118.30859 89.556641 L 128.36719 89.556641 L 129.78906 95.601562 L 142.64062 95.601562 L 132.78516 57.501953 L 113.93945 57.501953 z M 144.95117 57.501953 L 144.95117 95.601562 L 157.14258 95.601562 L 157.14258 79.142578 L 157.39648 79.142578 C 157.43035 79.921511 157.49801 80.547351 157.59961 81.021484 C 157.70121 81.495617 157.83653 81.850824 158.00586 82.087891 L 167.30273 95.601562 L 178.7832 95.601562 L 178.7832 57.501953 L 166.5918 57.501953 L 166.5918 73.960938 L 166.33789 73.960938 C 166.30402 73.182004 166.23637 72.554211 166.13477 72.080078 C 166.03317 71.605945 165.89785 71.250739 165.72852 71.013672 L 156.43164 57.501953 L 144.95117 57.501953 z M 80.744141 67.255859 L 85.824219 67.255859 C 87.517552 67.255859 88.720441 67.458834 89.431641 67.865234 C 90.176707 68.237768 90.548828 69.117326 90.548828 70.505859 L 90.548828 82.595703 C 90.548828 83.984236 90.176707 84.882662 89.431641 85.289062 C 88.720441 85.661596 87.517552 85.847656 85.824219 85.847656 L 80.744141 85.847656 L 80.744141 67.255859 z M 123.0332 69.185547 L 123.69336 69.185547 L 126.13086 79.853516 L 120.54297 79.853516 L 123.0332 69.185547 z "
         style="font-style:normal;font-variant:normal;font-weight:normal;font-stretch:expanded;font-family:'Black Han Sans';-inkscape-font-specification:'Black Han Sans Expanded';fill:#ffc401;fill-opacity:1;stroke:#ff3f01;stroke-width:0.26458332;stroke-opacity:0"
         id="path837"
         d="M 36.207031,57.501953 V 95.601562 H 63.333984 V 85.847656 H 48.398438 v -4.623047 h 12.193359 v -8.83789 H 48.398438 v -5.13086 h 13.107421 l 1.523438,-9.753906 z m 32.345703,0 v 38.099609 h 17.06836 c 3.420533,0 6.283004,-0.355206 8.585937,-1.066406 2.302934,-0.7112 4.148576,-1.829515 5.53711,-3.353515 1.388529,-1.524 2.369579,-3.488045 2.945309,-5.892579 0.6096,-2.4384 0.91407,-5.368529 0.91407,-8.789062 0,-3.420533 -0.30447,-6.331795 -0.91407,-8.736328 -0.57573,-2.404533 -1.55678,-4.368578 -2.945309,-5.892578 -1.388534,-1.524 -3.234176,-2.625401 -5.53711,-3.302735 -2.302933,-0.7112 -5.165404,-1.066406 -8.585937,-1.066406 z m 45.386716,0 -9.85547,38.099609 h 12.85157 l 1.37304,-6.044921 h 10.0586 l 1.42187,6.044921 h 12.85156 l -9.85546,-38.099609 z m 31.01172,0 v 38.099609 h 12.19141 V 79.142578 h 0.2539 c 0.0339,0.778933 0.10153,1.404773 0.20313,1.878906 0.1016,0.474133 0.23692,0.82934 0.40625,1.066407 l 9.29687,13.513671 H 178.7832 V 57.501953 h -12.1914 v 16.458985 h -0.25391 c -0.0339,-0.778934 -0.10152,-1.406727 -0.20312,-1.88086 -0.1016,-0.474133 -0.23692,-0.829339 -0.40625,-1.066406 l -9.29688,-13.511719 z m -64.207029,9.753906 h 5.080078 c 1.693333,0 2.896222,0.202975 3.607422,0.609375 0.745066,0.372534 1.117187,1.252092 1.117187,2.640625 v 12.089844 c 0,1.388533 -0.372121,2.286959 -1.117187,2.693359 -0.7112,0.372534 -1.914089,0.558594 -3.607422,0.558594 h -5.080078 z m 42.289059,1.929688 h 0.66016 l 2.4375,10.667969 h -5.58789 z" />
    </g>
    <rect
       id="rect3731"
       width="10.671527"
       height="4.3215275"
       x="-162.14883"
       y="82.319992"
       style="fill:#ffc401;fill-opacity:1;stroke-width:0.27070206"
       transform="rotate(-125)" />
    <rect
       id="rect3731-9"
       width="10.671526"
       height="4.3215275"
       x="-158.95287"
       y="90.748611"
       style="fill:#ffc401;fill-opacity:1;stroke-width:0.27070206"
       transform="rotate(-125)" />
    <path
       style="fill:#000000;stroke-width:0.33333334"
       d=""
       id="path3759"
       inkscape:connector-curvature="0"
       transform="scale(0.26458333)" />
    <path
       style="opacity:1;fill:#ffc401;fill-opacity:0;stroke:#ffc401;stroke-opacity:0"
       d="m 137.45096,289.48611 v -71.5 h 50.11129 50.11129 l -0.56705,3.25 c -0.31187,1.7875 -1.56962,9.8875 -2.79499,18 l -2.22794,14.75 h -24.8163 -24.8163 v 10 10 h 23 23 v 16.5 16.5 h -23 -23 v 9 9 h 28 28 v 18 18 h -50.5 -50.5 z"
       id="path4570"
       inkscape:connector-curvature="0"
       transform="scale(0.26458333)" />
    <path
       style="opacity:1;fill:#ffc401;fill-opacity:0;stroke:#ffc401;stroke-opacity:0"
       d="m 137.45096,289.48611 v -71.5 h 50 c 27.5,0 50.00469,0.3375 50.01041,0.75 0.006,0.4125 -1.20356,8.5125 -2.68733,18 l -2.69774,17.25 h -24.81267 -24.81267 v 10 10 h 23 23 v 16.5 16.5 h -23 -23 v 9 9 h 28 28 v 18 18 h -50.5 -50.5 z"
       id="path4572"
       inkscape:connector-curvature="0"
       transform="scale(0.26458333)" />
    <path
       style="opacity:0.72865858;fill:#ffc401;fill-opacity:0;stroke:#ffc401;stroke-opacity:0"
       d="m 137.35096,289.48611 v -71.5 h 50.1278 50.12782 l -0.56835,3.75 c -0.31259,2.0625 -1.56556,10.1625 -2.78437,18 l -2.21603,14.25 H 207.1944 182.35096 v 10 10 h 23 23 v 16.5 16.5 h -23 -23 v 9 9 h 28.5 28.5 v 18 18 h -51 -51 z"
       id="path4582"
       inkscape:connector-curvature="0"
       transform="scale(0.26458333)" />
    <flowRoot
       xml:space="preserve"
       id="flowRoot4584"
       style="font-style:normal;font-variant:normal;font-weight:bold;font-stretch:normal;font-size:40px;line-height:1.25;font-family:sans-serif;-inkscape-font-specification:'sans-serif Bold';letter-spacing:0px;word-spacing:0px;fill:#000000;fill-opacity:1;stroke:none"
       transform="scale(0.26458333)"><flowRegion
         id="flowRegion4586"><rect
           id="rect4588"
           width="112"
           height="42"
           x="74"
           y="825.51971" /></flowRegion><flowPara
         id="flowPara4590" /></flowRoot>  </g>
</svg>
